# xmcd CD database file
#
# Track frame offsets:
#	150
#	10833
#	31855
#	64515
#	86355
#	131868
#	156498
#	187150
#	208298
#	237100
#	261133
#
# Disc length: 3857 seconds
#
# Revision: 0
# Processed by: cddbd v1.5PL3 Copyright (c) Steve Scherf et al.
# Submitted via: CDex 1.50beta8
#
DISCID=960f0f0b
DTITLE=国府弘子 - Piano Voices
DYEAR=2003
DGENRE=Jazz
TTITLE0=Going Home
TTITLE1=Amazing Grace
TTITLE2=Moon River - The Day Of Wine And Roses
TTITLE3=Every Breath You Take
TTITLE4=(They Long To Be)Close To You - Killing Me Softly With His Song - Uskadara - Manha De Carnaval
TTITLE5=Success Moon Dance
TTITLE6=Summertime
TTITLE7=Shangri-La
TTITLE8=When You Wish Upon A Star
TTITLE9=Angelus
TTITLE10=Happiest You (For Your Wedding)
EXTD=YEAR: 2003
EXTT0=
EXTT1=
EXTT2=
EXTT3=
EXTT4=
EXTT5=
EXTT6=
EXTT7=
EXTT8=
EXTT9=
EXTT10=
PLAYORDER=
